HIERARCHY
ROOT Hips
{
	OFFSET 0.000000 0.000000 0.000000
	CHANNELS 6 Xposition Yposition Zposition Xrotation Yrotation Zrotation
	JOINT LeftUpLeg_virtual
	{
		OFFSET 0.000000 0.000000 0.000000
		CHANNELS 3 Xrotation Yrotation Zrotation
		JOINT LeftUpLeg
		{
			OFFSET 15.427100 -6.655098 0.678600
			CHANNELS 3 Xrotation Yrotation Zrotation
			JOINT LeftLeg
			{
				OFFSET 4.081073 -39.591068 13.024000
				CHANNELS 3 Xrotation Yrotation Zrotation
				JOINT LeftFoot
				{
					OFFSET -4.081074 -37.707932 -15.979700
					CHANNELS 3 Xrotation Yrotation Zrotation
					JOINT LeftToeBase
					{
						OFFSET 5.346399 -15.068900 20.645000
						CHANNELS 3 Xrotation Yrotation Zrotation
						JOINT LeftToe_End
						{
							OFFSET 2.754700 0.931300 11.300900
							CHANNELS 3 Xrotation Yrotation Zrotation
							End Site
							{
								OFFSET 0 0 0
							}
						}
					}
				}
			}
		}
	}
	JOINT RightUpLeg_virtual
	{
		OFFSET 0.000000 0.000000 0.000000
		CHANNELS 3 Xrotation Yrotation Zrotation
		JOINT RightUpLeg
		{
			OFFSET -15.569500 -6.655098 0.678600
			CHANNELS 3 Xrotation Yrotation Zrotation
			JOINT RightLeg
			{
				OFFSET -4.081825 -39.591045 13.023800
				CHANNELS 3 Xrotation Yrotation Zrotation
				JOINT RightFoot
				{
					OFFSET 4.081824 -37.707954 -15.979600
					CHANNELS 3 Xrotation Yrotation Zrotation
					JOINT RightToeBase
					{
						OFFSET -5.346400 -15.068900 20.645000
						CHANNELS 3 Xrotation Yrotation Zrotation
						JOINT RightToe_End
						{
							OFFSET -2.754700 0.931300 11.300900
							CHANNELS 3 Xrotation Yrotation Zrotation
							End Site
							{
								OFFSET 0 0 0
							}
						}
					}
				}
			}
		}
	}
	JOINT Spine_virtual
	{
		OFFSET 0.000000 0.000000 0.000000
		CHANNELS 3 Xrotation Yrotation Zrotation
		JOINT Spine
		{
			OFFSET -0.279200 12.230698 -2.892100
			CHANNELS 3 Xrotation Yrotation Zrotation
			JOINT Spine1
			{
				OFFSET -0.232667 10.192268 -1.242267
				CHANNELS 3 Xrotation Yrotation Zrotation
				JOINT Spine1_split
				{
					OFFSET -0.232667 10.192268 -1.242267
					CHANNELS 3 Xrotation Yrotation Zrotation
					JOINT Spine2
					{
						OFFSET -0.232667 10.192268 -1.242267
						CHANNELS 3 Xrotation Yrotation Zrotation
						JOINT Neck_virtual
						{
							OFFSET 0.000000 0.000000 0.000000
							CHANNELS 3 Xrotation Yrotation Zrotation
							JOINT Neck
							{
								OFFSET -0.418800 17.814194 8.416900
								CHANNELS 3 Xrotation Yrotation Zrotation
								JOINT Head
								{
									OFFSET 0.000000 7.031097 3.806800
									CHANNELS 3 Xrotation Yrotation Zrotation
									JOINT HeadTop_End
									{
										OFFSET 0.000000 24.646606 12.978600
										CHANNELS 3 Xrotation Yrotation Zrotation
										End Site
										{
											OFFSET 0 0 0
										}
									}
								}
							}
						}
						JOINT LeftShoulder_virtual
						{
							OFFSET 0.000000 0.000000 0.000000
							CHANNELS 3 Xrotation Yrotation Zrotation
							JOINT LeftShoulder
							{
								OFFSET 8.476499 7.247704 -3.868750
								CHANNELS 3 Xrotation Yrotation Zrotation
								JOINT LeftShoulder_split
								{
									OFFSET 8.476499 7.247704 -3.868750
									CHANNELS 3 Xrotation Yrotation Zrotation
									JOINT LeftArm
									{
										OFFSET 9.308998 -2.777710 0.208600
										CHANNELS 3 Xrotation Yrotation Zrotation
										JOINT LeftForeArm
										{
											OFFSET 29.972298 0.000000 0.000000
											CHANNELS 3 Xrotation Yrotation Zrotation
											JOINT LeftHand
											{
												OFFSET 26.026505 0.000000 0.000000
												CHANNELS 3 Xrotation Yrotation Zrotation
												End Site
												{
													OFFSET 0 0 0
												}
											}
										}
									}
								}
							}
						}
						JOINT RightShoulder_virtual
						{
							OFFSET 0.000000 0.000000 0.000000
							CHANNELS 3 Xrotation Yrotation Zrotation
							JOINT RightShoulder
							{
								OFFSET -7.570500 7.247704 -3.868750
								CHANNELS 3 Xrotation Yrotation Zrotation
								JOINT RightShoulder_split
								{
									OFFSET -7.570500 7.247704 -3.868750
									CHANNELS 3 Xrotation Yrotation Zrotation
									JOINT RightArm
									{
										OFFSET -9.308998 -2.777710 0.208500
										CHANNELS 3 Xrotation Yrotation Zrotation
										JOINT RightForeArm
										{
											OFFSET -29.972300 0.000000 0.000000
											CHANNELS 3 Xrotation Yrotation Zrotation
											JOINT RightHand
											{
												OFFSET -26.026505 0.000000 0.000000
												CHANNELS 3 Xrotation Yrotation Zrotation
												End Site
												{
													OFFSET 0 0 0
												}
											}
										}
									}
								}
							}
						}
					}
				}
			}
		}
	}
}
MOTION
Frames: 4
Frame Time: 0.03333333
8.532228 84.433891 1.486858 0.000000 0.000000 0.000000 5.615091 -13.681629 -1.533669 -32.990278 2.347263 14.859826 47.197850 9.965529 -1.120296 -15.115036 5.648207 -12.047947 -1.491417 -2.190174 -2.451236 0.000000 0.000000 0.000000 4.869065 -10.362585 -0.737163 -21.105020 -5.663654 -18.524672 46.007843 -11.919751 -10.996992 -15.075233 2.561730 11.948630 -16.009347 -2.403767 4.966063 0.000000 0.000000 0.000000 6.661750 -8.361885 -0.150070 12.983608 3.028404 -2.535440 8.222989 6.481757 -2.549985 0.031436 -1.518123 1.139040 0.000000 0.000000 0.000000 -1.786470 6.040595 -0.775449 -5.844313 1.103181 0.004930 -7.708220 8.222934 6.092038 0.000000 0.000000 0.000000 -3.206387 6.071807 -0.896198 -2.172761 0.479402 -3.099864 0.764870 -1.770918 1.277743 -14.032938 0.923900 -55.266349 -12.858806 -32.041589 -5.086671 0.000000 0.000000 0.000000 -3.648676 5.362584 -0.913570 5.118974 -9.247263 9.544926 2.259454 -2.693981 -2.193656 23.157596 58.310568 24.691781 16.287121 29.607846 4.899311 0.000000 0.000000 0.000000 
8.517123 85.025803 1.251827 0.000000 0.000000 0.000000 6.013055 -13.910798 -2.110077 -32.095803 1.682085 15.208101 44.632363 9.898736 -0.518217 -13.669413 5.212422 -11.722133 -1.561581 -2.241687 -2.685085 0.000000 0.000000 0.000000 5.035304 -10.684687 -1.448697 -19.804082 -6.087220 -16.048042 42.097581 -8.838674 -9.342129 -14.509115 3.804353 13.210249 -13.819748 -1.537241 3.548498 0.000000 0.000000 0.000000 6.808724 -8.216738 -0.686363 13.099708 3.171387 -2.177886 7.887000 6.516917 -2.401895 -0.084603 -1.702434 1.085913 0.000000 0.000000 0.000000 -2.139925 5.987407 -0.553070 -5.955889 1.185525 -0.115341 -7.260727 7.707225 6.749541 0.000000 0.000000 0.000000 -3.575202 6.033829 -0.835521 -2.167806 1.220637 -3.511342 0.992720 -2.013096 1.479339 -14.030311 1.399074 -55.365763 -12.102069 -30.851712 -4.318379 0.000000 0.000000 0.000000 -3.987106 5.369797 -0.760558 4.665780 -7.796478 9.215376 2.132155 -2.484581 -2.692348 15.607073 54.621590 30.491450 15.291007 26.733458 6.705980 0.000000 0.000000 0.000000 
8.422739 85.552750 1.002853 0.000000 0.000000 0.000000 6.142093 -14.198926 -2.550105 -31.121456 1.376970 15.578553 42.378848 9.785195 -0.047521 -12.737518 4.925371 -11.066240 -1.580205 -2.288534 -2.851013 0.000000 0.000000 0.000000 5.009467 -11.077068 -2.029885 -17.681540 -5.911645 -13.725205 37.241251 -6.656671 -7.965150 -14.715380 3.713803 13.733416 -10.958553 -0.908573 2.672109 0.000000 0.000000 0.000000 6.648739 -8.215382 -1.101962 13.255953 3.292393 -1.816679 7.509261 6.512026 -2.307252 -0.025232 -1.969108 1.044639 0.000000 0.000000 0.000000 -2.521699 5.912885 -0.411619 -6.025404 1.262340 -0.227083 -6.763540 7.002988 7.502934 0.000000 0.000000 0.000000 -3.936702 5.955145 -0.839165 -2.147502 1.923646 -3.869600 1.121475 -2.135922 1.532231 -13.942358 2.099636 -55.530681 -11.366044 -29.654212 -3.609312 0.000000 0.000000 0.000000 -4.335708 5.345615 -0.674054 4.128904 -6.494292 8.725421 1.796451 -2.193121 -2.780630 9.758096 49.881029 36.050425 15.320931 24.555003 6.892399 0.000000 0.000000 0.000000 
8.312029 85.956795 0.763538 0.000000 0.000000 0.000000 6.017739 -14.465673 -2.834737 -30.155176 1.496985 15.833818 40.594116 9.718377 0.196457 -12.390668 4.953670 -10.157931 -1.513281 -2.289586 -2.962709 0.000000 0.000000 0.000000 4.806338 -11.360234 -2.444121 -15.295575 -5.222395 -11.853263 32.338808 -5.231252 -6.965429 -15.286361 2.645487 13.777352 -8.134908 -0.542013 2.386274 0.000000 0.000000 0.000000 6.218625 -8.343598 -1.344825 13.409048 3.332863 -1.509289 7.111464 6.463854 -2.225054 0.159031 -2.157294 1.043325 0.000000 0.000000 0.000000 -2.935268 5.819130 -0.312178 -6.004565 1.290938 -0.377268 -6.276108 6.130265 8.338800 0.000000 0.000000 0.000000 -4.303796 5.847298 -0.845494 -2.119290 2.554327 -4.069735 1.141428 -2.268987 1.562655 -13.753620 2.772513 -55.747779 -10.653803 -28.576912 -2.953249 0.000000 0.000000 0.000000 -4.689646 5.296034 -0.597522 3.556670 -5.341073 8.227883 1.290168 -2.103304 -2.551793 5.799144 44.711176 41.217757 15.928418 22.965451 5.933802 0.000000 0.000000 0.000000 
